<svg version="1.2" xmlns="http://www.w3.org/2000/svg" viewBox="0 0 800 800" width="800" height="800">
	<style>
		.s0 { fill: none;stroke: #ff8c00;stroke-width: 50 } 
		.s1 { fill: none;stroke: #ff8c00;stroke-linecap: round;stroke-width: 50 }  
	</style>
	<g id="SVGRepo_bgCarrier">
	</g>
	<g id="SVGRepo_tracerCarrier">
	</g>
	<g id="SVGRepo_iconCarrier">
		<path class="s0" d="m78.8 431.93c-12.65-87.9-18.97-131.85-0.95-169.43 18.01-37.58 56.36-60.42 133.05-106.11l46.16-27.49c69.64-41.49 104.46-62.23 142.94-62.23 38.48 0 73.3 20.74 142.94 62.23l46.16 27.49c76.69 45.69 115.04 68.53 133.05 106.11 18.02 37.58 11.7 81.53-0.95 169.43l-9.29 64.58c-16.25 112.91-24.38 169.37-63.54 203.1-39.17 33.72-96.62 33.72-211.5 33.72h-73.74c-114.88 0-172.33 0-211.5-33.72-39.16-33.73-47.29-90.19-63.54-203.1z"/>
		<path class="s1" d="m500 433.33h-100m0 0h-100m100 0v-100m0 100v100"/>

	</g>
</svg>